<?xml version="1.0" encoding="UTF-8" standalone="no" ?>
<!DOCTYPE svg PUBLIC "-//W3C//DTD SVG 1.1//EN" "http://www.w3.org/Graphics/SVG/1.1/DTD/svg11.dtd">
<svg xmlns="http://www.w3.org/2000/svg" xmlns:xlink="http://www.w3.org/1999/xlink" version="1.1" width="735" height="1102" viewBox="0 0 735 1102" xml:space="preserve">
<desc>Created with Fabric.js 5.2.4</desc>
<defs>
</defs>
<rect x="0" y="0" width="100%" height="100%" fill="transparent"></rect>
<g transform="matrix(Infinity NaN NaN Infinity 0 0)" id="bbb093ba-5613-419f-b6bf-0b927f68f9bc"  >
</g>
<g transform="matrix(1 0 0 1 367.5 551)" id="8ec7a2ce-1010-465f-b354-cf69d364bb58"  >
<rect style="stroke: none; stroke-width: 1; stroke-dasharray: none; stroke-linecap: butt; stroke-dashoffset: 0; stroke-linejoin: miter; stroke-miterlimit: 4; fill: rgb(255,255,255); fill-rule: nonzero; opacity: 1; visibility: hidden;" vector-effect="non-scaling-stroke"  x="-367.5" y="-551" rx="0" ry="0" width="735" height="1102" />
</g>
<g transform="matrix(7.05 0 0 7.05 417.48 370.11)"  >
<path style="stroke: rgb(0,0,0); stroke-width: 0; stroke-dasharray: none; stroke-linecap: butt; stroke-dashoffset: 0; stroke-linejoin: miter; stroke-miterlimit: 4; fill: rgb(139,92,246); fill-rule: nonzero; opacity: 1;" vector-effect="non-scaling-stroke"  transform=" translate(-80.17, -71.81)" d="M 98.6 60.2 C 101.39999999999999 46 89.8 28.400000000000002 81.19999999999999 25.1 C 65.19999999999999 19 41.89999999999999 19.200000000000003 33.79999999999999 43.1 C 32.29999999999999 48.5 27.89999999999999 61.400000000000006 34.79999999999999 79.2 C 42.39999999999999 98.9 43.099999999999994 110.6 36.29999999999999 119.30000000000001 C 52.4 119.4 58.9 98 54.6 89 C 54.6 89 44.7 75.1 44.7 71.4 C 44.7 71.4 42.2 54.800000000000004 50.1 64.30000000000001 C 50.1 64.30000000000001 44.300000000000004 46.60000000000001 54 42.60000000000001 C 58.6 40.70000000000001 84.4 59.400000000000006 84.4 59.400000000000006 C 84.4 59.400000000000006 88.4 63.400000000000006 88.5 66.10000000000001 C 88.7 73.10000000000001 87.4 89.80000000000001 76.3 91.9 C 76.3 91.9 77.5 149.60000000000002 129.3 104.9 C 129.2 104.7 85.5 127.1 98.6 60.2 z" stroke-linecap="round" />
</g>
<g transform="matrix(NaN NaN NaN NaN 0 0)"  >
<g style=""   >
</g>
</g>
<g transform="matrix(NaN NaN NaN NaN 0 0)"  >
<g style=""   >
</g>
</g>
</svg>