<svg width="40" height="40" viewBox="0 0 40 40" fill="none" xmlns="http://www.w3.org/2000/svg">
<path xmlns="http://www.w3.org/2000/svg" fill="#000000" opacity="1.000000" stroke="none" d=" M368.742310,519.697205   C391.364685,505.552185 413.658661,491.563568 435.996338,477.645142   C441.047607,474.497711 442.963226,475.413757 444.180939,481.296967   C447.594604,497.788971 455.260162,512.254028 465.375977,525.512085   C469.190125,530.511047 469.245453,531.449158 463.955994,534.772705   C432.923126,554.271484 401.858917,573.720398 370.809998,593.193665   C337.364441,614.170105 303.947845,635.192993 270.468872,656.115967   C258.038544,663.884460 245.456772,671.410339 232.964127,679.079590   C225.386337,683.731506 223.027588,688.202087 224.763336,694.399353   C227.046631,702.551514 231.518173,705.900940 240.576797,705.900879   C420.231293,705.899719 599.885803,705.872192 779.540283,705.878296   C783.232727,705.878418 786.843872,705.439453 790.447021,704.735229   C799.532349,702.959717 804.251831,694.380615 800.967224,685.745605   C800.189575,683.701172 798.666138,682.576233 796.933411,681.520935   C721.658508,635.675781 647.377014,588.234863 572.482178,541.779053   C555.917786,531.504456 539.691956,520.652771 522.827942,510.900787   C505.227722,500.723083 494.401062,485.673584 487.966492,466.923645   C483.676208,454.422058 480.721527,441.650574 480.737823,428.335480   C480.767273,404.299164 491.030975,385.727325 510.788635,372.279175   C516.159485,368.623505 521.763489,365.301208 527.040649,361.519135   C535.302856,355.597687 541.726868,348.161255 539.425964,337.237244   C537.177795,326.563995 528.881470,321.588165 518.870178,319.169220   C511.093506,317.290192 503.377899,317.502197 495.714691,319.929169   C481.536957,324.419373 476.551483,335.363770 475.288452,348.909363   C474.871216,353.384277 474.563995,357.874481 474.382996,362.364838   C474.231201,366.130463 472.382233,368.620941 469.116119,370.191376   C454.574738,377.183380 439.761261,376.338165 424.901306,371.483124   C420.892212,370.173218 419.211914,366.931030 418.474823,362.756561   C412.630371,329.657837 430.820953,290.184326 461.551117,272.611603   C498.629669,251.408630 547.040100,257.790771 576.834656,288.040466   C600.182434,311.744934 607.066406,347.428223 593.528259,375.162567   C586.040588,390.501923 574.232544,401.721924 559.495605,410.006897   C550.338684,415.154846 542.762939,421.631897 540.304688,432.442474   C538.106812,442.107971 539.077698,448.303894 548.846863,454.389648   C606.967773,490.596375 664.885254,527.129395 722.894470,563.515625   C757.752380,585.380127 792.641602,607.194641 827.538452,628.997009   C844.848877,639.811890 857.779724,654.037048 862.687317,674.378845   C868.822327,699.808716 864.590210,723.089844 847.050171,743.039062   C833.404480,758.559082 815.519958,765.709534 795.202515,766.208313   C714.394592,768.192200 633.578308,765.565369 552.763916,766.349976   C519.102539,766.676758 485.435394,766.362915 451.771149,766.445374   C381.780914,766.616821 311.790894,766.919067 241.800568,767.017334   C228.598953,767.035828 215.652634,765.249084 203.089264,760.612976   C176.529068,750.811768 161.389267,726.867920 160.028854,699.430115   C159.418427,687.119019 159.282532,674.751099 164.381927,663.044128   C170.227249,649.624634 179.542419,639.216858 191.812897,631.437927   C224.734436,610.567139 257.705536,589.774353 290.663086,568.960327   C316.580597,552.592407 342.507202,536.238953 368.742310,519.697205  z"/>
<defs>
<linearGradient id="paint0_linear_309_45" x1="21.4111" y1="22.1035" x2="29.4219" y2="32.0324" gradientUnits="userSpaceOnUse">
<stop stop-color="white"/>
<stop offset="1" stop-color="white" stop-opacity="0"/>
</linearGradient>
<linearGradient id="paint1_linear_309_45" x1="24.1191" y1="8" x2="24.0737" y2="19.9316" gradientUnits="userSpaceOnUse">
<stop stop-color="white"/>
<stop offset="1" stop-color="white" stop-opacity="0"/>
</linearGradient>
</defs>
</svg>
