<svg width="40" height="40" viewBox="0 0 40 40" fill="none" xmlns="http://www.w3.org/2000/svg">
  <path 
    d="M11.8742 23.9697C12.3647 23.5522 12.6587 23.1564 12.9963 22.7645C13.0476 22.7498 13.0963 22.7541 13.1181 22.8297C13.1594 22.9779 13.2526 23.1254 13.3538 23.2551C13.3919 23.3051 13.3925 23.3145 13.3396 23.3477C12.9292 23.5427 12.5186 23.7372 12.1081 23.9319C11.7364 24.1417 11.3695 24.3519 10.9969 24.5612C10.8704 24.6388 10.7446 24.7141 10.6196 24.7908C10.5386 24.8373 10.5103 24.882 10.5276 24.944C10.5505 25.0255 10.5952 25.059 10.6858 25.059C13.4023 25.059 16.1189 25.0587 18.8354 25.0588C18.8723 25.0588 18.9084 25.0544 18.9445 25.0474C19.0353 25.0296 19.0825 24.9438 19.0497 24.8575C19.0419 24.837 19.0267 24.8258 19.0093 24.8152C18.2166 24.3568 17.4377 23.8823 16.6248 23.4178C16.4592 23.315 16.2969 23.2065 16.1283 23.109C15.9523 23.0072 15.844 22.8567 15.7797 22.6692C15.7368 22.5442 15.7072 22.4165 15.7074 22.2834C15.7077 22.043 15.8103 21.8573 16.0079 21.7228C16.0616 21.6862 16.1176 21.653 16.1704 21.6152C16.253 21.556 16.3173 21.4816 16.2943 21.3724C16.2718 21.2656 16.1888 21.2159 16.0887 21.1917C16.0109 21.1729 15.9338 21.175 15.8571 21.1993C15.7154 21.2442 15.6655 21.3536 15.6529 21.4891C15.6487 21.5338 15.6456 21.5787 15.6438 21.6236C15.6423 21.6613 15.6238 21.6862 15.5912 21.7019C15.4457 21.7718 15.2976 21.7634 15.149 21.7148C15.1089 21.7017 15.0921 21.6693 15.0847 21.6276C14.9663 21.2966 15.1482 20.9018 15.4555 20.7261C15.8263 20.5141 16.2704 20.5779 16.5683 20.8804C16.8018 21.1174 16.8707 21.4743 16.7953 21.7516C16.7204 21.905 16.6023 22.0172 16.4549 22.1001C16.3634 22.1515 16.2876 22.2163 16.263 22.3244C16.2411 22.4211 16.2508 22.483 16.3485 22.5439C17.0697 22.906 17.7885 23.2713 18.5089 23.6352C18.8575 23.8538 19.2064 24.0719 19.5554 24.29C19.7285 24.3981 19.8578 24.5404 19.9069 24.7438C19.9682 25.0081 19.9259 25.2309 19.7505 25.4304C19.6134 25.5856 19.4352 25.6571 19.2302 25.6621C17.4439 25.6819 15.6578 25.6557 13.8719 25.6635C13.5291 25.6668 13.1862 25.6636 12.8434 25.6645C11.4378 25.6662 10.0322 25.6692 8.62656 25.6702C8.36 25.6704 8.09653 25.6525 7.84089 25.6061C7.30529 25.5081 6.99389 25.2687 6.96029 24.9943C6.94184 24.8712 6.94083 24.7475 6.99382 24.6304C7.05227 24.4962 7.14542 24.3922 7.26813 24.3144C7.59734 24.1057 7.92706 23.8977 8.25663 23.689C8.51581 23.5259 8.77507 23.3624 9.04742 23.1967z" 
    fill="black"
  />
  <defs>
    <linearGradient id="paint0_linear_309_45" x1="21.4111" y1="22.1035" x2="29.4219" y2="32.0324" gradientUnits="userSpaceOnUse">
      <stop stop-color="white"/>
      <stop offset="1" stop-color="white" stop-opacity="0"/>
    </linearGradient>
    <linearGradient id="paint1_linear_309_45" x1="24.1191" y1="8" x2="24.0737" y2="19.9316" gradientUnits="userSpaceOnUse">
      <stop stop-color="white"/>
      <stop offset="1" stop-color="white" stop-opacity="0"/>
    </linearGradient>
  </defs>
</svg>